# xmcd
#
# Track frame offsets: 
#        150
#        11903
#        24482
#        36055
#        48319
#        60616
#        72832
#        85883
#        99204
#        111551
#        127425
#        139916
#        154350
#        164144
#        176583
#        190973
#        205126
#        220417
#        231344
#        243603
#
# Disc length: 3414 seconds
#
# Revision: 2
# Processed by: cddbd v1.5.2PL0 Copyright (c) Steve Scherf et al.
# Submitted via: ExactAudioCopyFreeDBPlugin 1.0
#
DISCID=330d5414
DTITLE=Various Artist - Vintage Sex Songs [CD1 of 2)
DYEAR=2008
DGENRE=R&B
TTITLE0=It Ain't The Meat (It's The Motion) - [The Swallows - Mann Glo
TTITLE0=ver 1951]
TTITLE1=I Want A Bow-legged Woman - [Bullmoose Jackson - Nix - Glover 
TTITLE1=1948]
TTITLE2=Move Your Hand Baby - [Crown Prince Waterford - Waterford 1947
TTITLE2=]
TTITLE3=It Must Be Jelly ('cos Jam Don't Shake Like That) - [Frankie '
TTITLE3=Half-Pint' Jaxon - Jaxon 1939]
TTITLE4=She Kept On Sittin' On It All The Time - [Wynonie Harris - Man
TTITLE4=n - Bernard 1949]
TTITLE5=King Size Papa - [Julia Lee - Carter - Vance 1948]
TTITLE6=I Want A Tall Skinny Papa - [Sister Rosetta Tharpe - Tharpe - 
TTITLE6=Millinde 1942]
TTITLE7=Just Give Me A Man - [Mabel Scott - Scott 1946]
TTITLE8=Rocket 69 - [Connie Allen - Glover - Mann 1951]
TTITLE9=I've Got Ford Engine Movements In My Hips - [Cleo Gibson - Gib
TTITLE9=son 1929]
TTITLE10=I Want Plenty Grease In My Frying Pan - [Margaret Carter - Ca
TTITLE10=rter 1926]
TTITLE11=A Man For Every Day In The Week - [Sippie Wallace - Wallace 1
TTITLE11=926]
TTITLE12=Ride Daddy Ride - [Fats Noel - Noel 1952]
TTITLE13=Hucklebuck Baby - [Jimmy Preston - Waters 1959]
TTITLE14=You Put It In, I'll Take It Out - [Papa Charlie Jackson - Jac
TTITLE14=kson 1934]
TTITLE15=I Found Your Keyhole - [Al Miller - Miller 1929]
TTITLE16=Bed Springs Blues - [Jimmie Gordon - Gordon 1934]
TTITLE17=My Baby's Playground - [Roosevelt Sykes - Sykes 1937]
TTITLE18=Keep On Eatin' - [Memphis Minnie - Lawlers 1938]
TTITLE19=I Need A Little Sugar In My Bowl - [Bessie Smith - Williams -
TTITLE19=Brymn - Small 1933]
EXTD=
EXTT0=
EXTT1=
EXTT2=
EXTT3=
EXTT4=
EXTT5=
EXTT6=
EXTT7=
EXTT8=
EXTT9=
EXTT10=
EXTT11=
EXTT12=
EXTT13=
EXTT14=
EXTT15=
EXTT16=
EXTT17=
EXTT18=
EXTT19=
PLAYORDER=
